<svg width="40" height="37" viewBox="0 0 40 37" fill="none" xmlns="http://www.w3.org/2000/svg">
<path d="M19.9985 0C14.5622 0 13.8847 0.0242813 11.7572 0.107531C9.62098 0.204656 8.17598 0.511063 6.90098 0.968938C5.56655 1.43493 4.35806 2.16452 3.35973 3.10684C2.33815 4.02814 1.54897 5.14662 1.04848 6.3825C0.553477 7.56187 0.222227 8.8985 0.117227 10.8745C0.0209766 12.8436 0.000976562 13.4692 0.000976562 18.4977C0.000976562 23.5262 0.0272266 24.1529 0.117227 26.1208C0.222227 28.0911 0.553477 29.4335 1.04848 30.6129C1.55225 31.8472 2.341 32.9651 3.35973 33.8885C4.35572 34.8335 5.56489 35.5635 6.90098 36.0264C8.17598 36.4785 9.62722 36.7907 11.7572 36.8878C13.886 36.9769 14.5622 36.9954 19.9985 36.9954C25.4347 36.9954 26.1122 36.9711 28.2397 36.8878C30.3697 36.7907 31.821 36.4774 33.096 36.0264C34.4304 35.5604 35.6389 34.8309 36.6372 33.8885C37.6601 32.9682 38.4495 31.8495 38.9485 30.6129C39.4372 29.4335 39.7747 28.0911 39.8797 26.1208C39.976 24.1517 39.996 23.5262 39.996 18.4977C39.996 13.4692 39.9697 12.8425 39.8797 10.8745C39.7747 8.90428 39.436 7.55494 38.9485 6.3825C38.4447 5.14816 37.656 4.0303 36.6372 3.10684C35.6423 2.16067 34.4328 1.43049 33.096 0.968938C31.821 0.511063 30.3697 0.204656 28.2397 0.107531C26.111 0.0185 25.4347 0 19.9985 0ZM19.9985 3.33C25.3372 3.33 25.9747 3.35428 28.0847 3.43753C30.031 3.52194 31.091 3.82256 31.7947 4.07694C32.6648 4.374 33.4522 4.84683 34.0997 5.46097C34.7625 6.05739 35.2718 6.78412 35.5897 7.58731C35.8647 8.23828 36.1897 9.21878 36.281 11.0191C36.371 12.9708 36.3972 13.5617 36.3972 18.4988C36.3972 23.436 36.371 24.0269 36.2735 25.9786C36.1685 27.7789 35.8435 28.7594 35.5697 29.4104C35.191 30.2787 34.7685 30.8858 34.071 31.5425C33.4213 32.1528 32.6343 32.6233 31.766 32.9207C31.071 33.1751 29.996 33.4757 28.0422 33.5602C25.921 33.6434 25.296 33.6677 19.9435 33.6677C14.591 33.6677 13.9672 33.6434 11.8435 33.5532C9.89723 33.4561 8.82348 33.1555 8.11973 32.9022C7.16973 32.5519 6.51848 32.1611 5.82098 31.5159C5.11723 30.8649 4.66973 30.2452 4.32473 29.3838C4.04473 28.7409 3.72473 27.7465 3.62098 25.9393C3.54973 24.0003 3.51598 23.399 3.51598 18.4711C3.51598 13.5455 3.54973 12.9431 3.62098 10.9798C3.72473 9.17253 4.04473 8.18047 4.32473 7.53528C4.66973 6.65538 5.11848 6.05412 5.82098 5.40316C6.51723 4.75912 7.16973 4.34288 8.11973 4.01681C8.82348 3.76359 9.87098 3.46297 11.8247 3.37278C13.946 3.30225 14.571 3.27681 19.916 3.27681L19.9985 3.33ZM19.9985 9.00372C18.6502 9.00326 17.315 9.24858 16.0692 9.72565C14.8234 10.2027 13.6914 10.9022 12.738 11.7841C11.7846 12.666 11.0284 13.713 10.5127 14.8654C9.99694 16.0177 9.73173 17.2528 9.73223 18.5C9.73173 19.7472 9.99694 20.9823 10.5127 22.1346C11.0284 23.287 11.7846 24.334 12.738 25.2159C13.6914 26.0978 14.8234 26.7973 16.0692 27.2743C17.315 27.7514 18.6502 27.9967 19.9985 27.9963C21.3468 27.9967 22.682 27.7514 23.9278 27.2743C25.1736 26.7973 26.3055 26.0978 27.2589 25.2159C28.2123 24.334 28.9685 23.287 29.4843 22.1346C30 20.9823 30.2652 19.7472 30.2647 18.5C30.2652 17.2528 30 16.0177 29.4843 14.8654C28.9685 13.713 28.2123 12.666 27.2589 11.7841C26.3055 10.9022 25.1736 10.2027 23.9278 9.72565C22.682 9.24858 21.3468 9.00326 19.9985 9.00372ZM19.9985 24.6663C16.3135 24.6663 13.3322 21.9086 13.3322 18.5C13.3322 15.0914 16.3135 12.3337 19.9985 12.3337C23.6835 12.3337 26.6647 15.0914 26.6647 18.5C26.6647 21.9086 23.6835 24.6663 19.9985 24.6663ZM33.0785 8.62447C33.0778 9.21377 32.8243 9.77872 32.3735 10.1952C31.9228 10.6117 31.3118 10.8456 30.6747 10.8456C30.3597 10.8456 30.0478 10.7882 29.7568 10.6767C29.4657 10.5652 29.2013 10.4018 28.9786 10.1957C28.7558 9.9897 28.5791 9.7451 28.4586 9.4759C28.338 9.20669 28.276 8.91816 28.276 8.62678C28.276 8.3354 28.338 8.04687 28.4586 7.77767C28.5791 7.50846 28.7558 7.26386 28.9786 7.05782C29.2013 6.85178 29.4657 6.68834 29.7568 6.57684C30.0478 6.46533 30.3597 6.40794 30.6747 6.40794C31.996 6.40794 33.0785 7.40231 33.0785 8.62447Z" fill="white"/>
</svg>
